<svg width="20" height="21" viewBox="0 0 20 21" fill="none" xmlns="http://www.w3.org/2000/svg">
<g clip-path="url(#clip0_3908_92458)">
<path d="M20 10.5C20 12.4739 19.414 14.3934 18.3056 16.0513C18.155 16.2767 17.9075 16.3984 17.6555 16.3984C17.5062 16.3984 17.3553 16.3559 17.222 16.2666C16.8632 16.0269 16.767 15.5417 17.0067 15.1829C17.9428 13.7829 18.4375 12.1637 18.4375 10.5C18.4375 9.78513 18.3481 9.07513 18.1717 8.39001C18.0641 7.97223 18.3157 7.5462 18.7335 7.43863C19.1516 7.33121 19.5773 7.58267 19.6849 8.00046C19.8939 8.81284 20 9.65375 20 10.5ZM14.3646 17.7224C13.0524 18.5173 11.5431 18.9375 9.99999 18.9375C5.34759 18.9375 1.5625 15.1524 1.5625 10.5C1.5625 5.8476 5.34759 2.0625 9.99999 2.0625C11.7226 2.0625 13.3789 2.57794 14.7902 3.55313C15.1451 3.79834 15.6317 3.70938 15.8771 3.35446C16.1223 2.99954 16.0335 2.51294 15.6784 2.26758C14.0048 1.11127 12.0413 0.5 9.99999 0.5C7.32894 0.5 4.81765 1.54019 2.92892 3.42892C1.04019 5.31766 0 7.82895 0 10.5C0 13.1711 1.04019 15.6823 2.92892 17.5711C4.81765 19.4598 7.32894 20.5 9.99999 20.5C11.8286 20.5 13.6178 20.0016 15.1742 19.0588C15.5434 18.8353 15.6613 18.3549 15.4378 17.9858C15.2141 17.6167 14.7337 17.4989 14.3646 17.7224ZM10.0754 12.7653C9.95162 12.7702 9.83611 12.7263 9.74639 12.6408L5.65475 8.76126C5.34164 8.46432 4.8471 8.47745 4.55032 8.79056C4.25338 9.10367 4.26651 9.59821 4.57962 9.89499L8.67049 13.7739C9.0483 14.1331 9.53704 14.3281 10.0549 14.3281C10.0827 14.3281 10.1105 14.3275 10.1382 14.3264C10.6868 14.3043 11.1906 14.0669 11.5568 13.6578C11.5662 13.6476 11.575 13.6371 11.5837 13.6262L19.8276 3.37231C20.0979 3.03601 20.0445 2.54422 19.7082 2.27399C19.3721 2.0036 18.8801 2.05701 18.6098 2.39331L10.3821 12.6272C10.3012 12.7116 10.1929 12.7606 10.0754 12.7653Z" fill="#2196F3"/>
</g>
<defs>
<clipPath id="clip0_3908_92458">
<rect width="20" height="20" fill="white" transform="translate(0 0.5)"/>
</clipPath>
</defs>
</svg>
