<svg width="16" height="12" viewBox="0 0 16 12" fill="none" xmlns="http://www.w3.org/2000/svg">
<g clip-path="url(#clip0_8725_785)">
<path d="M13.5609 11.2907H1.98894C1.46202 11.289 0.957237 11.0946 0.584652 10.75C0.212066 10.4054 0.00190567 9.9386 0 9.45128V2.76232C0.00190567 2.275 0.212066 1.80815 0.584652 1.46357C0.957237 1.11898 1.46202 0.924614 1.98894 0.922852H13.5609C14.0878 0.924614 14.5926 1.11898 14.9652 1.46357C15.3378 1.80815 15.548 2.275 15.5499 2.76232V9.45128C15.548 9.9386 15.3378 10.4054 14.9652 10.75C14.5926 11.0946 14.0878 11.289 13.5609 11.2907ZM1.98894 1.9262C1.74917 1.9262 1.51921 2.01429 1.34967 2.17109C1.18012 2.32789 1.08487 2.54056 1.08487 2.76232V9.45128C1.08487 9.67303 1.18012 9.88571 1.34967 10.0425C1.51921 10.1993 1.74917 10.2874 1.98894 10.2874H13.5609C13.8007 10.2874 14.0307 10.1993 14.2002 10.0425C14.3698 9.88571 14.465 9.67303 14.465 9.45128V2.76232C14.465 2.54056 14.3698 2.32789 14.2002 2.17109C14.0307 2.01429 13.8007 1.9262 13.5609 1.9262H1.98894Z" fill="white"/>
<path d="M7.77602 7.00953C7.35631 7.00953 6.94425 6.90559 6.58266 6.70852L0.268699 3.23695C0.150733 3.16896 0.0650022 3.06215 0.0287691 2.93804C-0.00746411 2.81392 0.00849118 2.68173 0.0734225 2.56806C0.145635 2.45755 0.261677 2.37752 0.396794 2.34503C0.53191 2.31254 0.675406 2.33016 0.796671 2.39414L7.11786 5.85903C7.30957 5.96716 7.52977 6.02437 7.75432 6.02437C7.97887 6.02437 8.19908 5.96716 8.39078 5.85903L14.712 2.39414C14.8332 2.33016 14.9767 2.31254 15.1118 2.34503C15.247 2.37752 15.363 2.45755 15.4352 2.56806C15.5001 2.68173 15.5161 2.81392 15.4799 2.93804C15.4436 3.06215 15.3579 3.16896 15.2399 3.23695L8.96938 6.70852C8.60778 6.90559 8.19573 7.00953 7.77602 7.00953Z" fill="white"/>
</g>
<defs>
<clipPath id="clip0_8725_785">
<rect width="16" height="12" fill="white"/>
</clipPath>
</defs>
</svg>
