<svg width="20" height="20" viewBox="0 0 20 20" fill="none" xmlns="http://www.w3.org/2000/svg">
<rect width="20" height="20" fill="black"/>
<g clip-path="url(#clip0_3902_101866)">
<rect width="1280" height="7705" transform="translate(-1106 -8)" fill="white"/>
<rect width="1280" height="36" transform="translate(-1106 -8)" fill="#000E24"/>
<g clip-path="url(#clip1_3902_101866)">
<g clip-path="url(#clip2_3902_101866)">
<path d="M10 0C8.0222 0 6.0888 0.58649 4.44431 1.6853C2.79981 2.78412 1.51809 4.3459 0.76121 6.17317C0.00433282 8.00043 -0.193701 10.0111 0.192152 11.9509C0.578005 13.8907 1.53041 15.6725 2.92894 17.0711C4.32747 18.4696 6.1093 19.422 8.04911 19.8079C9.98892 20.1937 11.9996 19.9957 13.8269 19.2388C15.6541 18.4819 17.2159 17.2002 18.3147 15.5557C19.4135 13.9112 20 11.9778 20 10C20 7.34784 18.9465 4.8043 17.0711 2.92893C15.1957 1.05357 12.6522 0 10 0V0ZM12.8448 6.50789C12.8448 6.69605 12.7658 6.77105 12.5816 6.77105C12.2277 6.77105 11.8737 6.77105 11.5211 6.78553C11.1684 6.8 10.9763 6.96053 10.9763 7.32895C10.9684 7.72368 10.9763 8.11053 10.9763 8.51316H12.4908C12.7066 8.51316 12.7803 8.58684 12.7803 8.80395C12.7803 9.33026 12.7803 9.85921 12.7803 10.3908C12.7803 10.6053 12.7119 10.6724 12.4948 10.6737H10.9632V14.9553C10.9632 15.1842 10.8921 15.2566 10.6658 15.2566H9.01844C8.81975 15.2566 8.74212 15.1789 8.74212 14.9803V10.6803H7.43422C7.22896 10.6803 7.15528 10.6053 7.15528 10.3987C7.15528 9.86623 7.15528 9.33421 7.15528 8.80263C7.15528 8.59737 7.23291 8.51974 7.43554 8.51974H8.74212V7.36842C8.72661 6.85126 8.8507 6.33948 9.10133 5.88684C9.36188 5.42988 9.77938 5.08297 10.2763 4.91053C10.5988 4.79318 10.9397 4.73436 11.2829 4.73684H12.5763C12.7619 4.73684 12.8395 4.81842 12.8395 5C12.8461 5.50658 12.8461 6.00789 12.8448 6.50789Z" fill="white"/>
</g>
</g>
</g>
<defs>
<clipPath id="clip0_3902_101866">
<rect width="1280" height="7705" fill="white" transform="translate(-1106 -8)"/>
</clipPath>
<clipPath id="clip1_3902_101866">
<rect width="110" height="20" fill="white"/>
</clipPath>
<clipPath id="clip2_3902_101866">
<rect width="20" height="20" fill="white"/>
</clipPath>
</defs>
</svg>
