<svg width="32" height="32" viewBox="0 0 32 32" fill="none" xmlns="http://www.w3.org/2000/svg">
<g clip-path="url(#clip0_8725_636)">
<path d="M8 6.39981C8 5.51618 8.71638 4.7998 9.6 4.7998H30.4C31.2836 4.7998 32 5.51618 32 6.39981C32 7.28343 31.2836 7.99981 30.4 7.99981H9.6C8.71638 7.99981 8 7.28337 8 6.39981ZM30.4 14.3998H1.6C0.716375 14.3998 0 15.1163 0 15.9998C0 16.8834 0.716375 17.5998 1.6 17.5998H30.4C31.2836 17.5998 32 16.8834 32 15.9998C32 15.1163 31.2836 14.3998 30.4 14.3998ZM30.4 23.9998H16C15.1164 23.9998 14.4 24.7162 14.4 25.5998C14.4 26.4834 15.1164 27.1998 16 27.1998H30.4C31.2836 27.1998 32 26.4834 32 25.5998C32 24.7162 31.2836 23.9998 30.4 23.9998Z" fill="#2196F3"/>
</g>
<defs>
<clipPath id="clip0_8725_636">
<rect width="32" height="32" fill="white"/>
</clipPath>
</defs>
</svg>
