<svg width="20" height="20" viewBox="0 0 20 20" fill="none" xmlns="http://www.w3.org/2000/svg">
<rect width="20" height="20" fill="black"/>
<g clip-path="url(#clip0_3902_101866)">
<rect width="1280" height="7705" transform="translate(-1136 -8)" fill="white"/>
<rect width="1280" height="36" transform="translate(-1136 -8)" fill="#000E24"/>
<g clip-path="url(#clip1_3902_101866)">
<g clip-path="url(#clip2_3902_101866)">
<path d="M12.1236 5.68457H7.87915C6.67026 5.68457 5.68359 6.66679 5.68359 7.88013V12.1246C5.68359 13.3335 6.66582 14.3201 7.87915 14.3201H12.1236C13.3325 14.3201 14.3192 13.3379 14.3192 12.1246V7.88013C14.3147 6.66679 13.3325 5.68457 12.1236 5.68457ZM9.99915 12.8401C8.43471 12.8401 7.15915 11.5646 7.15915 10.0001C7.15915 8.43568 8.43471 7.16013 9.99915 7.16013C11.5636 7.16013 12.8392 8.43568 12.8392 10.0001C12.8392 11.5646 11.5636 12.8401 9.99915 12.8401ZM12.9814 7.47568C12.7147 7.47568 12.5014 7.26235 12.5014 6.99568C12.5014 6.72901 12.7147 6.51568 12.9814 6.51568C13.248 6.51568 13.4614 6.72901 13.4614 6.99568C13.4614 7.26235 13.248 7.47568 12.9814 7.47568Z" fill="white"/>
<path d="M11.7274 10.021C11.7388 9.06866 10.976 8.28734 10.0236 8.27591C9.07126 8.26448 8.28993 9.02727 8.27851 9.97966C8.26708 10.932 9.02987 11.7134 9.98226 11.7248C10.9346 11.7362 11.716 10.9734 11.7274 10.021Z" fill="white"/>
<path d="M10 0C4.47556 0 0 4.47556 0 10C0 15.5244 4.47556 20 10 20C15.5244 20 20 15.5244 20 10C20 4.47556 15.5244 0 10 0ZM15.5556 12.1244C15.5556 14.0178 14.0178 15.5556 12.1244 15.5556H7.88C5.98667 15.5556 4.44889 14.0178 4.44889 12.1244V7.88C4.44889 5.98667 5.98667 4.44889 7.88 4.44889H12.1244C14.0178 4.44889 15.5556 5.98667 15.5556 7.88V12.1244Z" fill="white"/>
</g>
</g>
</g>
<defs>
<clipPath id="clip0_3902_101866">
<rect width="1280" height="7705" fill="white" transform="translate(-1136 -8)"/>
</clipPath>
<clipPath id="clip1_3902_101866">
<rect width="110" height="20" fill="white" transform="translate(-30)"/>
</clipPath>
<clipPath id="clip2_3902_101866">
<rect width="20" height="20" fill="white"/>
</clipPath>
</defs>
</svg>
