<svg width="34" height="38" viewBox="0 0 34 38" fill="none" xmlns="http://www.w3.org/2000/svg">
<path d="M25.0784 18.9616V33.6324L25.9612 33.1296V18.9616C25.9612 18.7213 25.7644 18.5258 25.5226 18.5258C25.2808 18.5202 25.0784 18.7213 25.0784 18.9616ZM29.2785 6.7768V1.97776C29.2785 1.19561 28.6375 0.558717 27.8504 0.558717H24.9941C24.2069 0.558717 23.5659 1.19561 23.5659 1.97776V3.50295L18.8879 0.821294C17.7465 0.167641 16.4364 0.167641 15.2951 0.821294L2.13811 8.36903C0.996717 9.02268 0.338867 10.1512 0.338867 11.4585V26.554C0.338867 27.8669 0.991094 28.9898 2.13811 29.6435L6.93421 32.3978V28.2412V26.0624V22.0119V20.4812V18.9504C6.93421 18.671 7.16473 18.442 7.44587 18.442H7.51334V17.2352V16.5816C6.97357 15.9224 6.29885 15.6654 5.3655 16.2296C5.3655 16.4252 5.20806 16.5816 5.01127 16.5816H3.94859C3.7518 16.5816 3.59437 16.4252 3.59437 16.2296V13.2184C3.59437 13.0228 3.7518 12.8664 3.94859 12.8664H5.01127C5.20806 12.8664 5.3655 13.0228 5.3655 13.2184C6.05708 13.7435 6.74866 13.7826 7.43462 12.8664H7.50772H7.51334H7.53021H7.54707H7.56394H7.58081H7.59768H7.61455H7.63141H7.64828H7.66515H7.68202H7.69889H7.71575H7.73262H7.74949H7.76636H7.78322H7.80009H7.81696H7.83383H7.8507H7.86756H7.88443H7.9013H7.91817H7.93504H7.9519H7.96877H7.98564H8.0025H8.01938H8.03624H8.05311H8.06998H8.09247H8.10934H8.1262H8.14307H8.15994H8.17681H8.19368H8.21054H8.22741H8.24428H8.26115H8.27802H8.29488H8.31175H8.32862H8.34549H8.36236H8.37922H8.39609H8.41296H8.42983H8.44669H8.46356H8.48043H8.4973H8.51417H9.38005H9.48688V12.872C11.691 12.9949 13.6083 14.129 14.3729 15.7771C14.3167 15.7101 14.2661 15.8944 14.1986 15.8386C13.552 15.2408 12.5287 14.7044 11.5391 14.8665C10.5833 15.0229 9.80737 15.5648 9.48126 16.2799V16.5816V17.2352V18.442H9.53186C9.81299 18.442 10.0435 18.671 10.0491 18.956V22.0119V26.0624V34.1855L15.2894 37.1912C15.4131 37.2638 15.5368 37.3253 15.6661 37.3812V28.8613L14.8171 28.1071L13.3271 27.973C12.7761 27.9228 12.3263 27.5261 12.3263 26.9786V25.9841H21.6824V26.9786C21.6824 27.5261 21.2269 27.9283 20.6815 27.973L19.1915 28.1071L18.3425 28.8613V37.4482C18.5281 37.3756 18.708 37.2918 18.8823 37.1912L23.9595 34.2749V18.2576C23.0487 17.7269 22.4358 16.7827 22.4358 15.6151C22.4358 14.4474 23.1442 13.358 24.1676 12.8608V15.8497L25.517 16.8274L26.8664 15.8497V12.8608C27.8897 13.358 28.5982 14.4474 28.5982 15.6151C28.5982 16.7827 27.9853 17.7269 27.0745 18.2576V32.4816L32.0336 29.6379C33.175 28.9842 33.8329 27.8557 33.8329 26.5484V11.4529C33.8329 10.14 33.1806 9.0171 32.0336 8.36344L29.2785 6.7768ZM20.7659 19.5705H21.688V25.5484H12.3263V19.5705H13.6083L13.9119 22.2242L14.2998 19.5705H16.92L17.2292 23.336L17.5891 19.5705H18.8429L19.2365 21.1181L19.3715 19.5705H20.1811L20.3498 23.336L20.7659 19.5705Z" fill="#2196F3"/>
</svg>
