<svg width="20" height="20" viewBox="0 0 20 20" fill="none" xmlns="http://www.w3.org/2000/svg">
<rect width="20" height="20" fill="black"/>
<g clip-path="url(#clip0_3902_101866)">
<rect width="1280" height="7705" transform="translate(-1196 -8)" fill="white"/>
<rect width="1280" height="36" transform="translate(-1196 -8)" fill="#000E24"/>
<g clip-path="url(#clip1_3902_101866)">
<g clip-path="url(#clip2_3902_101866)">
<path d="M10 0C4.478 0 0 4.478 0 10C0 15.522 4.478 20 10 20C15.522 20 20 15.522 20 10C20 4.478 15.522 0 10 0ZM10.2119 15.8223C10.2118 15.8223 10.2121 15.8223 10.2119 15.8223H10.2095C9.20776 15.8218 8.22342 15.5707 7.34924 15.094L4.17648 15.9261L5.02563 12.8255C4.5018 11.9182 4.22623 10.8888 4.22668 9.83429C4.22806 6.53534 6.91299 3.85147 10.2119 3.85147C11.8129 3.85208 13.3157 4.47525 14.4456 5.60608C15.5757 6.73706 16.1977 8.24036 16.1971 9.83902C16.1957 13.1381 13.5104 15.8223 10.2119 15.8223Z" fill="white"/>
<path d="M10.2151 4.8623C7.4711 4.8623 5.2395 7.09299 5.23828 9.83499C5.23798 10.7746 5.50104 11.6897 5.99893 12.4815L6.11719 12.6696L5.61456 14.5048L7.49735 14.011L7.67908 14.1187C8.44278 14.5719 9.31833 14.8116 10.211 14.8119H10.213C12.9548 14.8119 15.1864 12.5811 15.1876 9.83896C15.1881 8.51007 14.6711 7.26068 13.7319 6.32074C12.7928 5.3808 11.5437 4.86276 10.2151 4.8623ZM13.1411 11.9731C13.0164 12.3222 12.4191 12.6409 12.1317 12.684C11.874 12.7224 11.5481 12.7384 11.1898 12.6248C10.9725 12.5558 10.6941 12.4638 10.3372 12.3098C8.83707 11.6622 7.8573 10.1522 7.78253 10.0524C7.70776 9.95264 7.17188 9.24173 7.17188 8.5058C7.17188 7.77002 7.55823 7.40823 7.69525 7.2587C7.83243 7.10901 7.99448 7.07162 8.09412 7.07162C8.19376 7.07162 8.29355 7.07254 8.38068 7.07681C8.47253 7.08139 8.59583 7.04187 8.71713 7.33347C8.8418 7.63284 9.14087 8.36862 9.17825 8.44339C9.21564 8.51831 9.24051 8.60559 9.19077 8.70538C9.14087 8.80518 8.97516 9.02048 8.81693 9.2167C8.75055 9.29895 8.66403 9.37219 8.75131 9.52188C8.83844 9.67142 9.13873 10.1611 9.58322 10.5575C10.1545 11.0668 10.6364 11.2246 10.7859 11.2995C10.9353 11.3743 11.0226 11.3618 11.1099 11.2621C11.197 11.1624 11.4837 10.8256 11.5833 10.6759C11.683 10.5262 11.7828 10.5512 11.9198 10.6011C12.057 10.6509 12.7921 11.0127 12.9417 11.0874C13.0912 11.1624 13.1909 11.1997 13.2282 11.2621C13.2658 11.3246 13.2658 11.6238 13.1411 11.9731Z" fill="white"/>
</g>
</g>
</g>
<defs>
<clipPath id="clip0_3902_101866">
<rect width="1280" height="7705" fill="white" transform="translate(-1196 -8)"/>
</clipPath>
<clipPath id="clip1_3902_101866">
<rect width="110" height="20" fill="white" transform="translate(-90)"/>
</clipPath>
<clipPath id="clip2_3902_101866">
<rect width="20" height="20" fill="white"/>
</clipPath>
</defs>
</svg>
