<svg width="52" height="52" viewBox="0 0 52 52" fill="none" xmlns="http://www.w3.org/2000/svg">
<g clip-path="url(#clip0_3919_89903)">
<path d="M51.0505 18.7141C49.9208 18.1294 48.2185 18.3128 47.1502 20.0972C47.1472 20.1023 47.1441 20.1074 47.1412 20.1126L43.1946 26.9734C42.0545 26.3868 40.6168 26.6759 39.799 27.7257C39.5165 28.0885 38.5831 29.3311 37.5952 30.6467C37.0536 31.3678 36.5122 32.0888 36.094 32.6432C35.7563 33.091 35.8454 33.7279 36.2931 34.0656C36.741 34.4036 37.3776 34.3143 37.7153 33.8665C38.1341 33.3112 38.6766 32.589 39.2191 31.8667C40.1584 30.6161 41.1296 29.3228 41.4012 28.9741C41.6329 28.6765 42.0778 28.6188 42.3729 28.8485C42.592 29.0188 42.5803 29.436 42.3381 30.0884C41.4762 32.4102 40.4052 34.7304 39.3997 36.454C39.1171 36.9386 39.2806 37.5604 39.7651 37.8431C40.2497 38.1257 40.8714 37.9621 41.1539 37.4777C42.2157 35.6574 43.3412 33.2219 44.2421 30.7953C44.5545 29.9535 44.6113 29.2796 44.5201 28.7423L48.8968 21.1339C49.2505 20.5472 49.7176 20.3113 50.1172 20.5181C50.3916 20.6601 50.624 21.0251 50.378 21.5866C50.0817 22.2413 49.4439 23.8615 48.637 25.9114C47.569 28.6244 46.2401 32.001 45.1168 34.6283C43.7485 37.8292 43.2216 38.6023 40.779 40.9916L36.8865 44.7996C36.6296 45.051 36.5246 45.4196 36.6105 45.7686L37.9666 51.2753C37.9683 51.2819 37.9699 51.2886 37.9717 51.2953C37.994 51.3783 37.9465 51.4482 37.9217 51.4678H29.9846C29.2306 51.4678 29.0687 51.2528 28.9002 50.7964C26.9081 45.4003 28.9629 42.3031 30.9756 40.2077C31.3641 39.8031 31.3511 39.1602 30.9467 38.7717C30.5423 38.3831 29.8995 38.3959 29.5109 38.8005C28.0279 40.3446 27.0466 41.9212 26.5192 43.6085C26.3028 42.9206 26.0114 42.2502 25.6436 41.5954C24.2633 39.1375 22.0197 37.3367 20.2169 35.8896C19.1686 35.0482 18.1783 34.2534 17.6205 33.5372C17.3492 33.1889 16.3787 31.8966 15.4402 30.6469C14.4521 29.3312 13.5188 28.0886 13.2363 27.7258C12.4185 26.676 10.9809 26.3868 9.84072 26.9735L5.89401 20.1126C5.89107 20.1074 5.88802 20.1023 5.88498 20.0972C4.81663 18.3128 3.11425 18.1294 1.98457 18.7141C0.84596 19.3036 0.0738197 20.7627 0.800976 22.4108C0.802398 22.414 0.803819 22.4171 0.805241 22.4203C1.00092 22.8517 1.3943 23.8357 1.71518 24.6447C1.92202 25.1661 2.5125 25.4211 3.03352 25.2143C3.55485 25.0074 3.80982 24.417 3.60298 23.8957C3.10968 22.6518 2.82647 21.9604 2.6573 21.5867C2.41146 21.0252 2.6438 20.6602 2.91817 20.5182C3.31795 20.3114 3.78495 20.5474 4.13873 21.1341L8.51527 28.7424C8.42408 29.2797 8.48085 29.9536 8.7934 30.7954C9.69409 33.2219 10.8197 35.6574 11.8815 37.4777C12.1642 37.9621 12.7859 38.1257 13.2703 37.8431C13.7546 37.5604 13.9182 36.9385 13.6356 36.454C12.6301 34.7303 11.559 32.4101 10.6971 30.0884C10.455 29.436 10.4433 29.0189 10.6626 28.8484C10.9574 28.6192 11.4025 28.6766 11.6341 28.9741C11.9056 29.3228 12.877 30.6161 13.8163 31.8668C14.8036 33.1813 15.7361 34.4229 16.0184 34.7854C16.7221 35.6889 17.8022 36.556 18.9458 37.4738C22.6004 40.4071 26.7428 43.732 24.135 50.7963C23.9664 51.2527 23.8045 51.4677 23.0506 51.4677H15.1135C15.0887 51.4482 15.0412 51.3782 15.0634 51.2952C15.0653 51.2886 15.067 51.2819 15.0686 51.2752L16.4246 45.7685C16.5106 45.4195 16.4056 45.051 16.1486 44.7995L12.2561 40.9915C9.81371 38.6022 9.2867 37.8291 7.91839 34.6281C7.63722 33.9706 7.32132 33.2139 6.97911 32.3793C6.76638 31.8603 6.17326 31.6119 5.65437 31.8249C5.13548 32.0376 4.88731 32.6309 5.10004 33.1499C5.45088 34.0057 5.76201 34.7505 6.051 35.4266C7.52664 38.8786 8.19744 39.8623 10.8362 42.4436L14.3139 45.8459L13.0987 50.7808C12.9273 51.4353 13.0708 52.146 13.4838 52.6844C13.8809 53.202 14.4698 53.4989 15.0996 53.4989H23.0505C24.5655 53.4989 25.5434 52.845 26.04 51.4997C26.2279 50.9909 26.3867 50.4916 26.5185 50.0007C26.6494 50.4936 26.8081 50.9934 26.995 51.4997C27.4916 52.845 28.4696 53.4989 29.9845 53.4989H37.9354C38.5652 53.4989 39.1541 53.202 39.5513 52.6844C39.9641 52.1462 40.1078 51.4356 39.9365 50.7812L38.7211 45.846L42.1989 42.4437C44.8375 39.8624 45.5084 38.8786 46.9841 35.4267C48.1187 32.7724 49.4537 29.3807 50.5265 26.6553C51.2936 24.7068 51.9559 23.0241 52.2298 22.42C52.2313 22.4168 52.2326 22.4137 52.234 22.4105C52.9615 20.7627 52.1892 19.3036 51.0505 18.7141Z" fill="#2196F3"/>
<path d="M5.3515 28.5215C5.3515 27.9606 4.89688 27.5059 4.33606 27.5059H4.33535C3.77452 27.5059 3.32031 27.9606 3.32031 28.5215C3.32031 29.0824 3.77523 29.5371 4.33606 29.5371C4.89688 29.5371 5.3515 29.0823 5.3515 28.5215Z" fill="#2196F3"/>
<path d="M33.682 35.481C33.1213 35.481 32.667 35.9357 32.667 36.4966C32.667 37.0575 33.1219 37.5122 33.6827 37.5122C34.2436 37.5122 34.6982 37.0575 34.6982 36.4966C34.6982 35.9357 34.2435 35.481 33.6827 35.481H33.682Z" fill="#2196F3"/>
<path d="M10.2725 18.3282H19.5316C19.4528 18.7536 19.4113 19.1902 19.4113 19.6343V21.3753C19.4113 21.9362 19.8659 22.3909 20.4268 22.3909H32.6121C33.1728 22.3909 33.6275 21.9362 33.6275 21.3753V19.6343C33.6275 19.1903 33.586 18.7537 33.5072 18.3282H42.7665C43.3272 18.3282 43.7819 17.8735 43.7819 17.3126V15.5716C43.7819 13.2049 42.6253 11.0428 40.7071 9.72301C41.0033 9.12359 41.1707 8.44951 41.1707 7.73685V5.99586C41.1707 3.5158 39.1534 1.49805 36.6738 1.49805C34.1941 1.49805 32.1768 3.51569 32.1768 5.99586V7.73695C32.1768 8.45073 32.3447 9.12582 32.6418 9.72596C32.0171 10.1594 31.4696 10.6874 31.0164 11.2847V10.0585C31.0164 7.57841 28.9991 5.56066 26.5194 5.56066C24.0397 5.56066 22.0224 7.57831 22.0224 10.0585V11.2849C21.5692 10.6875 21.0216 10.1594 20.3969 9.72596C20.694 9.12582 20.8619 8.45084 20.8619 7.73695V5.99586C20.8619 3.5158 18.8446 1.49805 16.3649 1.49805C13.8852 1.49805 11.8679 3.51569 11.8679 5.99586V7.73695C11.8679 8.44962 12.0353 9.12369 12.3315 9.72311C10.4132 11.0427 9.25684 13.2041 9.25684 15.5717V17.3127C9.25704 17.8735 9.71165 18.3282 10.2725 18.3282ZM31.5966 20.3597H21.4422V19.6343C21.4422 17.9161 22.3453 16.2955 23.7826 15.3649C24.5413 15.9489 25.4902 16.2973 26.5194 16.2973C27.5492 16.2973 28.4986 15.9485 29.2574 15.3639C29.4768 15.5046 29.6827 15.6606 29.875 15.8294C29.9068 15.8617 29.9402 15.8922 29.9761 15.9201C30.5 16.4053 30.9122 16.9917 31.1898 17.6414C31.2036 17.6817 31.22 17.7207 31.2386 17.7586C31.4715 18.3442 31.5965 18.9782 31.5965 19.6342V20.3597H31.5966ZM41.751 15.5717V16.2971H32.7982C32.4959 15.7294 32.1166 15.2041 31.669 14.7357C31.9061 13.333 32.7358 12.08 33.9384 11.3034C34.6969 11.8867 35.6453 12.2347 36.6738 12.2347C37.7036 12.2347 38.6529 11.8859 39.4118 11.3013C40.8673 12.2348 41.751 13.8256 41.751 15.5717ZM34.2076 5.99586C34.2076 4.63583 35.3139 3.5293 36.6737 3.5293C38.0335 3.5293 39.1397 4.63583 39.1397 5.99586V7.73695C39.1397 9.09698 38.0334 10.2035 36.6737 10.2035C35.3138 10.2035 34.2076 9.09698 34.2076 7.73695V5.99586ZM24.0533 10.0585C24.0533 8.69845 25.1596 7.59192 26.5194 7.59192C27.8792 7.59192 28.9855 8.69845 28.9855 10.0585V11.7996C28.9855 13.1596 27.8792 14.2661 26.5194 14.2661C25.1596 14.2661 24.0533 13.1596 24.0533 11.7996V10.0585ZM13.899 5.99586C13.899 4.63583 15.0053 3.5293 16.3651 3.5293C17.7249 3.5293 18.8312 4.63583 18.8312 5.99586V7.73695C18.8312 9.09698 17.7249 10.2035 16.3651 10.2035C15.0053 10.2035 13.899 9.09698 13.899 7.73695V5.99586ZM11.2879 15.5717C11.2879 13.825 12.1716 12.2347 13.6271 11.3014C14.386 11.886 15.3354 12.2348 16.3651 12.2348C17.3937 12.2348 18.342 11.8868 19.1005 11.3035C20.3028 12.08 21.1326 13.3331 21.3699 14.7354C20.9221 15.2038 20.5426 15.7293 20.2403 16.2972H11.288V15.5717H11.2879Z" fill="#2196F3"/>
</g>
<defs>
<clipPath id="clip0_3919_89903">
<rect width="52" height="52" fill="white"/>
</clipPath>
</defs>
</svg>
