<svg width="24" height="24" viewBox="0 0 24 24" fill="none" xmlns="http://www.w3.org/2000/svg">
<g clip-path="url(#clip0_1002_13218)">
<path d="M18 4.79998C18 4.13726 17.4627 3.59998 16.8 3.59998H1.2C0.537281 3.59998 0 4.13726 0 4.79998C0 5.4627 0.537281 5.99998 1.2 5.99998H16.8C17.4627 5.99998 18 5.46265 18 4.79998ZM1.2 10.8H22.8C23.4627 10.8 24 11.3373 24 12C24 12.6627 23.4627 13.2 22.8 13.2H1.2C0.537281 13.2 0 12.6627 0 12C0 11.3373 0.537281 10.8 1.2 10.8ZM1.2 18H12C12.6627 18 13.2 18.5373 13.2 19.2C13.2 19.8627 12.6627 20.4 12 20.4H1.2C0.537281 20.4 0 19.8627 0 19.2C0 18.5373 0.537281 18 1.2 18Z" fill="#2196F3"/>
</g>
<defs>
<clipPath id="clip0_1002_13218">
<rect width="24" height="24" fill="white" transform="matrix(-1 0 0 1 24 0)"/>
</clipPath>
</defs>
</svg>
