<svg width="20" height="20" viewBox="0 0 20 20" fill="none" xmlns="http://www.w3.org/2000/svg">
<g clip-path="url(#clip0_1407_88338)">
<path d="M0.976501 20C0.783329 20 0.594485 19.9428 0.433857 19.8355C0.273228 19.7282 0.148032 19.5756 0.0741029 19.3972C0.000174186 19.2187 -0.0191653 19.0223 0.0185306 18.8329C0.0562266 18.6434 0.149265 18.4694 0.285876 18.3328L18.3328 0.285944C18.5159 0.102779 18.7643 -0.00012207 19.0234 -0.00012207C19.2824 -0.00012207 19.5308 0.102779 19.714 0.285944C19.8972 0.469109 20.0001 0.717535 20.0001 0.976569C20.0001 1.2356 19.8972 1.48403 19.714 1.66719L1.66713 19.7141C1.57652 19.8049 1.46886 19.8769 1.35034 19.9259C1.23182 19.975 1.10478 20.0002 0.976501 20Z" fill="#2196F3"/>
<path d="M19.0233 20C18.895 20.0002 18.768 19.975 18.6495 19.9259C18.531 19.8769 18.4233 19.8049 18.3327 19.7141L0.285822 1.66719C0.102657 1.48403 -0.000244141 1.2356 -0.000244141 0.976569C-0.000244141 0.717535 0.102657 0.469109 0.285822 0.285944C0.468987 0.102779 0.717413 -0.00012207 0.976447 -0.00012207C1.23548 -0.00012207 1.48391 0.102779 1.66707 0.285944L19.7139 18.3328C19.8506 18.4694 19.9436 18.6434 19.9813 18.8329C20.019 19.0223 19.9997 19.2187 19.9257 19.3972C19.8518 19.5756 19.7266 19.7282 19.566 19.8355C19.4053 19.9428 19.2165 20 19.0233 20Z" fill="#2196F3"/>
</g>
<defs>
<clipPath id="clip0_1407_88338">
<rect width="20" height="20" fill="white"/>
</clipPath>
</defs>
</svg>
