<svg width="16" height="16" viewBox="0 0 16 16" fill="none" xmlns="http://www.w3.org/2000/svg">
<path d="M8 0.5C6.54131 0.5 5.14236 1.07946 4.11091 2.11091C3.07946 3.14236 2.5 4.54131 2.5 6C2.5 8.905 7.4 15.05 7.61 15.315C7.65685 15.3734 7.71622 15.4205 7.78372 15.4529C7.85122 15.4853 7.92513 15.5021 8 15.5021C8.07487 15.5021 8.14878 15.4853 8.21628 15.4529C8.28378 15.4205 8.34315 15.3734 8.39 15.315C8.6 15.05 13.5 8.905 13.5 6C13.5 4.54131 12.9205 3.14236 11.8891 2.11091C10.8576 1.07946 9.45869 0.5 8 0.5ZM8 7.5C7.60444 7.5 7.21776 7.3827 6.88886 7.16294C6.55996 6.94318 6.30362 6.63082 6.15224 6.26537C6.00087 5.89992 5.96126 5.49778 6.03843 5.10982C6.1156 4.72186 6.30608 4.36549 6.58579 4.08579C6.86549 3.80608 7.22186 3.6156 7.60982 3.53843C7.99778 3.46126 8.39991 3.50087 8.76537 3.65224C9.13082 3.80362 9.44318 4.05996 9.66294 4.38886C9.8827 4.71776 10 5.10444 10 5.5C10 6.03043 9.78929 6.53914 9.41421 6.91421C9.03914 7.28929 8.53043 7.5 8 7.5Z" fill="white"/>
</svg>
