<svg width="24" height="24" viewBox="0 0 24 24" fill="none" xmlns="http://www.w3.org/2000/svg">
<path d="M17.7662 8.4326C17.7662 3.78286 13.8511 0 9.03892 0C4.2267 0 0.311646 3.78286 0.311646 8.4326V23.9861H6.12983V22.5806H9.03892C9.03892 21.5552 9.03892 16.469 9.03892 15.5535H7.58437V18.3643H6.12983V15.5535H4.67528V8.4326C4.67528 6.10773 6.63281 4.2163 9.03892 4.2163C11.445 4.2163 13.4026 6.10773 13.4026 8.4326V9.83803H17.7662V8.4326ZM7.58437 19.7698V21.1752H4.67528V22.5806H1.76619V16.9589H4.67528V19.7698H7.58437ZM14.8571 8.4326C14.8571 5.33278 12.2471 2.81087 9.03892 2.81087C5.83077 2.81087 3.22074 5.33278 3.22074 8.4326V15.5535H1.76619V8.4326C1.76619 4.55782 5.02874 1.40543 9.03892 1.40543C13.0491 1.40543 16.3116 4.55782 16.3116 8.4326H14.8571Z" fill="#2196F3"/>
<path d="M15.5844 10.6906L14.9816 11.5531C14.4825 12.267 13.4026 13.9415 13.4026 14.8041C13.4026 15.9665 14.3814 16.9122 15.5844 16.9122C16.7875 16.9122 17.7662 15.9665 17.7662 14.8041C17.7662 13.9416 16.6864 12.2671 16.1872 11.5531L15.5844 10.6906ZM15.5844 15.5068C15.1834 15.5068 14.8571 15.1915 14.8571 14.8049C14.8629 14.5889 15.1654 13.9658 15.5846 13.2691C16.0035 13.9651 16.3056 14.5878 16.3117 14.8046C16.3114 15.1918 15.9853 15.5068 15.5844 15.5068Z" fill="#2196F3"/>
</svg>
