<svg width="24" height="24" viewBox="0 0 24 24" fill="none" xmlns="http://www.w3.org/2000/svg">
<g clip-path="url(#clip0_992_3317)">
<path d="M23.2969 0H20.4844C20.0961 0 19.7812 0.314812 19.7812 0.703125V1.40625H18.6094C14.6031 1.40625 11.3438 4.66561 11.3438 8.67188V15.5156C11.3438 16.3169 10.6919 16.9688 9.89062 16.9688C9.08939 16.9688 8.4375 16.3169 8.4375 15.5156V4.21875H9.14062C9.52894 4.21875 9.84375 3.90394 9.84375 3.51562V0.703125C9.84375 0.314812 9.52894 0 9.14062 0H0.703125C0.314813 0 0 0.314812 0 0.703125V3.51562C0 3.90394 0.314813 4.21875 0.703125 4.21875H1.40625V15.5156C1.40625 20.1939 5.21231 24 9.89062 24C14.5689 24 18.375 20.1939 18.375 15.5156V8.67188C18.375 8.54264 18.4801 8.4375 18.6094 8.4375H19.7812V9.14062C19.7812 9.52894 20.0961 9.84375 20.4844 9.84375H23.2969C23.6852 9.84375 24 9.52894 24 9.14062V0.703125C24 0.314812 23.6852 0 23.2969 0ZM1.40625 1.40625H8.4375V2.8125H7.73438H2.10938H1.40625V1.40625ZM7.03125 4.21875V11.2969H2.8125V4.21875H7.03125ZM9.89062 22.5938C5.98772 22.5938 2.8125 19.4185 2.8125 15.5156V12.7031H7.03125V15.5156C7.03125 17.0923 8.31394 18.375 9.89062 18.375C11.4673 18.375 12.75 17.0923 12.75 15.5156V12.7031H16.9688V15.5156C16.9688 19.4185 13.7935 22.5938 9.89062 22.5938ZM18.6094 7.03125C17.7047 7.03125 16.9688 7.76723 16.9688 8.67188V11.2969H12.75V8.67188C12.75 5.44102 15.3785 2.8125 18.6094 2.8125H19.7812V7.03125H18.6094ZM22.5938 8.4375H21.1875V7.73438V2.10938V1.40625H22.5938V8.4375Z" fill="#2196F3"/>
<path d="M13.3138 19.7811C13.7022 19.7811 14.017 19.4663 14.017 19.078C14.017 18.6897 13.7022 18.3749 13.3138 18.3749C12.9255 18.3749 12.6107 18.6897 12.6107 19.078C12.6107 19.4663 12.9255 19.7811 13.3138 19.7811Z" fill="#2196F3"/>
<path d="M6.47009 19.7811C6.85842 19.7811 7.17322 19.4663 7.17322 19.078C7.17322 18.6897 6.85842 18.3749 6.47009 18.3749C6.08177 18.3749 5.76697 18.6897 5.76697 19.078C5.76697 19.4663 6.08177 19.7811 6.47009 19.7811Z" fill="#2196F3"/>
<path d="M4.92188 16.2186C5.3102 16.2186 5.625 15.9038 5.625 15.5155C5.625 15.1272 5.3102 14.8124 4.92188 14.8124C4.53355 14.8124 4.21875 15.1272 4.21875 15.5155C4.21875 15.9038 4.53355 16.2186 4.92188 16.2186Z" fill="#2196F3"/>
<path d="M9.89062 21.1875C10.279 21.1875 10.5938 20.8727 10.5938 20.4844C10.5938 20.0961 10.279 19.7812 9.89062 19.7812C9.5023 19.7812 9.1875 20.0961 9.1875 20.4844C9.1875 20.8727 9.5023 21.1875 9.89062 21.1875Z" fill="#2196F3"/>
<path d="M14.8594 16.2186C15.2477 16.2186 15.5625 15.9038 15.5625 15.5155C15.5625 15.1272 15.2477 14.8124 14.8594 14.8124C14.471 14.8124 14.1562 15.1272 14.1562 15.5155C14.1562 15.9038 14.471 16.2186 14.8594 16.2186Z" fill="#2196F3"/>
</g>
<defs>
<clipPath id="clip0_992_3317">
<rect width="24" height="24" fill="white"/>
</clipPath>
</defs>
</svg>
