<svg width="24" height="24" viewBox="0 0 24 24" fill="none" xmlns="http://www.w3.org/2000/svg">
<g clip-path="url(#clip0_992_3320)">
<path d="M19.7812 14.1562V15.5625H16.2656C15.8779 15.5625 15.5625 15.2471 15.5625 14.8594V14.1094H16.9219V9.89062H15.5625V7.73438C15.5625 4.24505 12.7237 1.40625 9.23438 1.40625H4.21875V0H0V9.84375H4.21875V8.4375H7.82812C8.21583 8.4375 8.53125 8.75292 8.53125 9.14062V9.89062H7.07812V14.1094H8.53125V16.2656C8.53125 19.755 11.37 22.5938 14.8594 22.5938H19.7812V24H24V14.1562H19.7812ZM2.8125 8.4375H1.40625V1.40625H2.8125V8.4375ZM7.82812 7.03125H4.21875V2.8125H9.23438C11.9483 2.8125 14.1562 5.02045 14.1562 7.73438V9.89062H9.9375V9.14062C9.9375 7.97752 8.99123 7.03125 7.82812 7.03125ZM8.48438 11.2969H15.5156V12.7031H8.48438V11.2969ZM14.8594 21.1875C12.1455 21.1875 9.9375 18.9795 9.9375 16.2656V14.1094H14.1562V14.8594C14.1562 16.0225 15.1025 16.9688 16.2656 16.9688H19.7812V21.1875H14.8594ZM22.5938 22.5938H21.1875V15.5625H22.5938V22.5938Z" fill="#2196F3"/>
</g>
<defs>
<clipPath id="clip0_992_3320">
<rect width="24" height="24" fill="white"/>
</clipPath>
</defs>
</svg>
