<svg width="24" height="24" viewBox="0 0 24 24" fill="none" xmlns="http://www.w3.org/2000/svg">
<g clip-path="url(#clip0_992_3318)">
<path d="M16.9331 12.9565L15.4804 11.5039L19.3195 7.66478L19.8167 8.16194C20.1387 8.48387 20.6804 8.42045 20.9168 8.02652L23.8998 3.05483C24.0658 2.77817 24.0222 2.42404 23.794 2.19594L21.8053 0.207278C21.5772 -0.0208618 21.2231 -0.0644085 20.9464 0.101528L15.9748 3.08455C15.5824 3.31995 15.5165 3.86173 15.8393 4.18461L16.3365 4.68176L12.4974 8.52086L11.0447 7.06821C11.5561 5.15768 11.0345 3.08038 9.5883 1.6341C7.77926 -0.174892 5.07116 -0.461204 2.95331 0.679589C2.75766 0.78501 2.62336 0.976681 2.59106 1.19657C2.55881 1.41646 2.63241 1.63865 2.78958 1.79582L5.42826 4.4345C5.70243 4.70867 5.70243 5.15473 5.42826 5.42881C5.15409 5.70298 4.70807 5.70302 4.4339 5.42881L1.79522 2.79008C1.63805 2.63291 1.41582 2.55927 1.19598 2.59157C0.976086 2.62382 0.784415 2.75816 0.678993 2.95381C-0.457486 5.06374 -0.181581 7.77363 1.6336 9.58876C3.07664 11.0318 5.15287 11.5577 7.0677 11.0453L7.52586 11.5034L1.0313 17.9981C-0.343346 19.3727 -0.34419 21.5944 1.0313 22.97C2.40206 24.3407 4.63241 24.3408 6.00322 22.97L12.4977 16.4753L12.956 16.9335C12.4447 18.8441 12.9662 20.9214 14.4124 22.3676C16.2215 24.1767 18.9296 24.463 21.0474 23.3222C21.2431 23.2168 21.3774 23.0251 21.4097 22.8052C21.4419 22.5853 21.3683 22.3631 21.2111 22.206L18.5725 19.5673C18.2983 19.2931 18.2983 18.8471 18.5725 18.573C18.8466 18.2988 19.2927 18.2989 19.5668 18.573L22.2055 21.2117C22.3626 21.3688 22.5849 21.4423 22.8047 21.4102C23.0246 21.3779 23.2163 21.2436 23.3217 21.0479C24.4582 18.938 24.1824 16.2281 22.3672 14.413C20.9241 12.97 18.8479 12.444 16.9331 12.9565ZM21.1992 1.5898L22.4115 2.80208L20.1743 6.53079L17.4704 3.82705L21.1992 1.5898ZM17.3308 5.67612L18.3252 6.67043L14.4861 10.5095L13.4917 9.51521L17.3308 5.67612ZM5.00887 21.9757C4.1864 22.7982 2.84813 22.7982 2.02561 21.9757C1.20038 21.1505 1.19987 19.8182 2.02561 18.9925L8.52012 12.4978L11.5034 15.481L5.00887 21.9757ZM22.4498 19.4673L20.5612 17.5787C19.7388 16.7563 18.4006 16.7563 17.5782 17.5787C16.7558 18.401 16.7558 19.7392 17.5782 20.5617L19.4668 22.4503C18.0319 22.8421 16.4895 22.456 15.4068 21.3734C14.2609 20.2274 13.8718 18.4999 14.4156 16.9722C14.5066 16.7164 14.4423 16.4311 14.2503 16.2392L7.76206 9.75095C7.57053 9.55942 7.28544 9.49449 7.02912 9.58571C5.50138 10.1295 3.77386 9.74035 2.62791 8.59445C1.54519 7.51174 1.15918 5.96946 1.55096 4.53453L3.43959 6.42316C4.26196 7.24553 5.60015 7.24549 6.42261 6.42316C7.24498 5.60079 7.24498 4.26261 6.42261 3.44014L4.53398 1.55151C5.96886 1.15963 7.51123 1.54574 8.59395 2.62846C9.73989 3.77441 10.129 5.50198 9.58521 7.02968C9.49418 7.28542 9.55849 7.5707 9.75044 7.76261L16.2387 14.2508C16.4306 14.4428 16.7159 14.5071 16.9716 14.4161C18.4993 13.8723 20.2269 14.2614 21.3728 15.4073C22.4556 16.4901 22.8416 18.0324 22.4498 19.4673Z" fill="#2196F3"/>
<path d="M9.14218 14.9996C8.86758 14.7251 8.42246 14.7251 8.14787 14.9996L3.85142 19.2962C3.57687 19.5708 3.57687 20.0159 3.85142 20.2905C4.12606 20.5651 4.57113 20.5651 4.84573 20.2905L9.14213 15.9939C9.41668 15.7193 9.41668 15.2742 9.14218 14.9996Z" fill="#2196F3"/>
</g>
<defs>
<clipPath id="clip0_992_3318">
<rect width="24" height="24" fill="white"/>
</clipPath>
</defs>
</svg>
