<svg width="24" height="24" viewBox="0 0 24 24" fill="none" xmlns="http://www.w3.org/2000/svg">
<path d="M12 15.4286C12.4734 15.4286 12.8571 14.9207 12.8571 14.2941V1.13445C12.8571 0.507895 12.4734 0 12 0C11.5266 0 11.1428 0.507895 11.1428 1.13445V14.2941C11.1428 14.9207 11.5266 15.4286 12 15.4286Z" fill="#2196F3"/>
<path d="M13.875 14.625H10.125C6.50644 14.625 3.5625 17.5689 3.5625 21.1875V22.125H2.625C2.10722 22.125 1.6875 22.5447 1.6875 23.0625C1.6875 23.5803 2.10722 24 2.625 24H21.375C21.8928 24 22.3125 23.5803 22.3125 23.0625C22.3125 22.5447 21.8928 22.125 21.375 22.125H20.4375V21.1875C20.4375 17.5689 17.4936 14.625 13.875 14.625ZM18.5625 22.125H5.4375V21.1875C5.4375 18.6028 7.54031 16.5 10.125 16.5H13.875C16.4597 16.5 18.5625 18.6028 18.5625 21.1875V22.125Z" fill="#2196F3"/>
</svg>
