<svg width="24" height="24" viewBox="0 0 24 24" fill="none" xmlns="http://www.w3.org/2000/svg">
<g clip-path="url(#clip0_992_3319)">
<path d="M13.5107 9.78748C13.2519 9.78748 13.042 9.99738 13.042 10.2562V10.2589C13.042 10.5177 13.2519 10.7263 13.5107 10.7263C13.7696 10.7263 13.9795 10.5151 13.9795 10.2563C13.9795 9.99743 13.7696 9.78748 13.5107 9.78748Z" fill="#2196F3"/>
<path d="M10.4866 9.78748C10.2278 9.78748 10.0179 9.99738 10.0179 10.2562V10.2589C10.0179 10.5177 10.2278 10.7263 10.4866 10.7263C10.7455 10.7263 10.9554 10.5151 10.9554 10.2563C10.9554 9.99743 10.7455 9.78748 10.4866 9.78748Z" fill="#2196F3"/>
<path d="M13.5107 12.8048C13.2519 12.8048 13.042 13.016 13.042 13.2749C13.042 13.5337 13.2519 13.7436 13.5107 13.7436C13.7696 13.7436 13.9795 13.5337 13.9795 13.2749V13.2722C13.9795 13.0134 13.7696 12.8048 13.5107 12.8048Z" fill="#2196F3"/>
<path d="M10.4866 12.8048C10.2278 12.8048 10.0179 13.016 10.0179 13.2749C10.0179 13.5337 10.2278 13.7436 10.4866 13.7436C10.7455 13.7436 10.9554 13.5337 10.9554 13.2749V13.2722C10.9554 13.0134 10.7455 12.8048 10.4866 12.8048Z" fill="#2196F3"/>
<path d="M23.5312 8.8162H21.6266C21.4453 8.1855 20.8627 7.72247 20.1736 7.72247C19.4838 7.72247 18.9007 8.1855 18.7193 8.8162H15.9011C15.7529 8.37113 15.4 8.01886 14.9541 7.87111V6.85617C14.9541 6.33234 14.6122 5.88708 14.1396 5.73047V4.98286C14.1396 4.19077 13.4936 3.54633 12.6995 3.54633H12.468V2.09213H16.0452C16.3041 2.09213 16.514 1.88222 16.514 1.62338C16.514 1.36453 16.3041 1.15463 16.0452 1.15463H12.468V0.727173C12.468 0.468329 12.2581 0.258423 11.9993 0.258423C11.7405 0.258423 11.5305 0.468329 11.5305 0.727173V1.15463H7.95473C7.69589 1.15463 7.48598 1.36453 7.48598 1.62338C7.48598 1.88222 7.69589 2.09213 7.95473 2.09213H11.5305V3.54628H11.2991C10.5058 3.54628 9.86039 4.19072 9.86039 4.98281V5.72995C9.38709 5.88614 9.04453 6.33178 9.04453 6.85608V7.87102C8.5987 8.01877 8.24573 8.37103 8.09752 8.81611H5.27939C5.09808 8.18541 4.51556 7.72238 3.82636 7.72238C3.13716 7.72238 2.55464 8.18541 2.37337 8.81611H0.46875C0.209906 8.81611 0 9.02602 0 9.28486V14.2472C0 14.506 0.209906 14.7159 0.46875 14.7159H2.37342C2.55473 15.3466 3.13725 15.8097 3.82641 15.8097C4.51561 15.8097 5.09812 15.3466 5.27944 14.7159H8.0977C8.24597 15.1604 8.59884 15.5122 9.04453 15.6598V18.4692C8.41247 18.6501 7.94836 19.2324 7.94836 19.9215C7.94836 20.6099 8.41247 21.1917 9.04453 21.3725V23.2717C9.04453 23.5305 9.25444 23.7404 9.51328 23.7404H14.4854C14.7442 23.7404 14.9541 23.5305 14.9541 23.2717V21.3728C15.5869 21.1925 16.0516 20.6103 16.0516 19.9215C16.0516 19.232 15.5868 18.6493 14.9541 18.4688V15.6598C15.3998 15.5122 15.7527 15.1604 15.9009 14.7159H18.7192C18.9007 15.3466 19.4837 15.8097 20.1735 15.8097C20.8627 15.8097 21.4452 15.3466 21.6265 14.7159H23.5312C23.7901 14.7159 24 14.506 24 14.2472V13.8667C24 13.6079 23.7901 13.398 23.5312 13.398C23.3025 13.398 23.1121 13.5617 23.0708 13.7784H21.6854V9.75361H23.0708C23.1121 9.97031 23.3025 10.1341 23.5312 10.1341C23.7901 10.1341 24 9.92419 24 9.66534V9.28486C24 9.02606 23.7901 8.8162 23.5312 8.8162ZM15.9772 9.7537H18.6605V13.7785H15.9772V9.7537ZM9.98203 7.79536V6.85617C9.98203 6.7215 10.0965 6.60769 10.2322 6.60769H13.7665C13.9021 6.60769 14.0166 6.7215 14.0166 6.85617V7.79536H9.98203ZM11.2991 4.48378H12.6996C12.9766 4.48378 13.2021 4.70766 13.2021 4.98281V5.67014H10.7979V4.98281C10.7979 4.70766 11.0227 4.48378 11.2991 4.48378ZM5.33822 9.7537H8.02144V13.7785H5.33822V9.7537ZM0.9375 9.7537H2.31464V13.7785H0.9375V9.7537ZM4.40072 14.3003C4.40072 14.6157 4.14309 14.8723 3.82641 14.8723C3.50977 14.8723 3.25214 14.6157 3.25214 14.3003V9.23189C3.25214 8.91652 3.50977 8.65997 3.82641 8.65997C4.14309 8.65997 4.40072 8.91656 4.40072 9.23189V14.3003ZM14.0166 15.7355V18.4107H9.98203V15.7355H14.0166ZM9.98203 22.803V21.431H14.0166V22.803H9.98203ZM14.5399 20.4935H9.46012C9.14348 20.4935 8.88586 20.2369 8.88586 19.9215C8.88586 19.6054 9.14348 19.3483 9.46012 19.3483H14.5398C14.8565 19.3483 15.1141 19.6054 15.1141 19.9215C15.1141 20.2369 14.8565 20.4935 14.5399 20.4935ZM14.4854 14.798H9.51328C9.20761 14.798 8.95894 14.5509 8.95894 14.2473V9.28495C8.95894 8.98055 9.20766 8.73286 9.51328 8.73286H14.4854C14.791 8.73286 15.0397 8.98055 15.0397 9.28495V14.2473C15.0397 14.551 14.791 14.798 14.4854 14.798ZM20.7479 14.3003C20.7479 14.6157 20.4902 14.8723 20.1736 14.8723C19.8562 14.8723 19.598 14.6157 19.598 14.3003V9.23189C19.598 8.91652 19.8562 8.65997 20.1736 8.65997C20.4902 8.65997 20.7479 8.91656 20.7479 9.23189V14.3003Z" fill="#2196F3"/>
<path d="M23.5312 11.2955C23.2724 11.2955 23.0625 11.5061 23.0625 11.765C23.0625 12.0239 23.2724 12.2337 23.5312 12.2337C23.7901 12.2337 24 12.0238 24 11.765V11.7637C24 11.5048 23.7901 11.2955 23.5312 11.2955Z" fill="#2196F3"/>
</g>
<defs>
<clipPath id="clip0_992_3319">
<rect width="24" height="24" fill="white"/>
</clipPath>
</defs>
</svg>
