<svg width="32" height="32" viewBox="0 0 32 32" fill="none" xmlns="http://www.w3.org/2000/svg">
<g clip-path="url(#clip0_8878_934)">
<path d="M16 0C12.8355 0 9.74208 0.938384 7.11089 2.69649C4.4797 4.45459 2.42894 6.95345 1.21794 9.87707C0.00693252 12.8007 -0.309921 16.0177 0.307443 19.1214C0.924807 22.2251 2.44866 25.0761 4.6863 27.3137C6.92395 29.5513 9.77488 31.0752 12.8786 31.6926C15.9823 32.3099 19.1993 31.9931 22.123 30.7821C25.0466 29.5711 27.5455 27.5203 29.3036 24.8891C31.0617 22.2579 32 19.1645 32 16C32 11.7565 30.3143 7.68687 27.3137 4.68629C24.3132 1.68571 20.2435 0 16 0V0ZM20.5516 10.4126C20.5516 10.7137 20.4253 10.8337 20.1306 10.8337C19.5642 10.8337 18.9979 10.8337 18.4337 10.8568C17.8695 10.88 17.5621 11.1368 17.5621 11.7263C17.5495 12.3579 17.5621 12.9768 17.5621 13.6211H19.9853C20.3306 13.6211 20.4485 13.7389 20.4485 14.0863C20.4485 14.9284 20.4485 15.7747 20.4485 16.6253C20.4485 16.9684 20.339 17.0758 19.9916 17.0779H17.5411V23.9284C17.5411 24.2947 17.4274 24.4105 17.0653 24.4105H14.4295C14.1116 24.4105 13.9874 24.2863 13.9874 23.9684V17.0884H11.8948C11.5663 17.0884 11.4484 16.9684 11.4484 16.6379C11.4484 15.786 11.4484 14.9347 11.4484 14.0842C11.4484 13.7558 11.5727 13.6316 11.8969 13.6316H13.9874V11.7895C13.9626 10.962 14.1611 10.1432 14.5621 9.41895C14.979 8.68781 15.647 8.13276 16.4421 7.85684C16.9582 7.66909 17.5036 7.57498 18.0527 7.57895H20.1221C20.419 7.57895 20.5432 7.70947 20.5432 8C20.5537 8.81053 20.5537 9.61263 20.5516 10.4126Z" fill="white"/>
</g>
<defs>
<clipPath id="clip0_8878_934">
<rect width="32" height="32" fill="white"/>
</clipPath>
</defs>
</svg>
