<svg width="32" height="32" viewBox="0 0 32 32" fill="none" xmlns="http://www.w3.org/2000/svg">
<g clip-path="url(#clip0_8878_945)">
<path d="M16 0C7.16479 0 0 7.16479 0 16C0 24.8352 7.16479 32 16 32C24.8352 32 32 24.8352 32 16C32 7.16479 24.8352 0 16 0ZM16.3391 25.3157C16.3389 25.3157 16.3394 25.3157 16.3391 25.3157H16.3352C14.7324 25.3149 13.1575 24.9131 11.7588 24.1504L6.68237 25.4817L8.04102 20.5208C7.20288 19.0691 6.76196 17.4221 6.7627 15.7349C6.76489 10.4565 11.0608 6.16235 16.3391 6.16235C18.9006 6.16333 21.3052 7.1604 23.113 8.96973C24.9211 10.7793 25.9163 13.1846 25.9153 15.7424C25.9131 21.021 21.6167 25.3157 16.3391 25.3157Z" fill="white"/>
<path d="M16.3438 7.78027C11.9534 7.78027 8.38281 11.3494 8.38086 15.7366C8.38037 17.24 8.80127 18.7041 9.5979 19.9709L9.78711 20.272L8.98291 23.2083L11.9954 22.4182L12.2861 22.5906C13.5081 23.3157 14.9089 23.6992 16.3372 23.6997H16.3403C20.7273 23.6997 24.2979 20.1304 24.2998 15.7429C24.3005 13.6167 23.4734 11.6177 21.9707 10.1138C20.468 8.60986 18.4695 7.78101 16.3438 7.78027ZM21.0254 19.1575C20.8259 19.7161 19.8701 20.2261 19.4104 20.2949C18.998 20.3564 18.4766 20.3821 17.9033 20.2002C17.5557 20.0898 17.1101 19.9426 16.5391 19.6963C14.1389 18.6602 12.5713 16.2441 12.4517 16.0845C12.332 15.9248 11.4746 14.7874 11.4746 13.6099C11.4746 12.4326 12.0928 11.8538 12.312 11.6145C12.5315 11.375 12.7908 11.3152 12.9502 11.3152C13.1096 11.3152 13.2693 11.3166 13.4087 11.3235C13.5557 11.3308 13.7529 11.2676 13.947 11.7341C14.1465 12.2131 14.625 13.3904 14.6848 13.51C14.7446 13.6299 14.7844 13.7695 14.7048 13.9292C14.625 14.0889 14.3599 14.4333 14.1067 14.7473C14.0005 14.8789 13.8621 14.9961 14.0017 15.2356C14.1411 15.4749 14.6216 16.2583 15.3328 16.8926C16.2468 17.7075 17.0178 17.96 17.2571 18.0798C17.4961 18.1995 17.6357 18.1794 17.7754 18.02C17.9148 17.8604 18.3735 17.3215 18.533 17.082C18.6924 16.8425 18.8521 16.8826 19.0713 16.9624C19.2908 17.042 20.467 17.6208 20.7063 17.7405C20.9456 17.8604 21.105 17.9202 21.1648 18.02C21.2249 18.1199 21.2249 18.5986 21.0254 19.1575Z" fill="white"/>
</g>
<defs>
<clipPath id="clip0_8878_945">
<rect width="32" height="32" fill="white"/>
</clipPath>
</defs>
</svg>
