<svg width="32" height="32" viewBox="0 0 32 32" fill="none" xmlns="http://www.w3.org/2000/svg">
<g clip-path="url(#clip0_8878_940)">
<path d="M19.3978 9.09473H12.6066C10.6724 9.09473 9.09375 10.6663 9.09375 12.6076V19.3987C9.09375 21.333 10.6653 22.9116 12.6066 22.9116H19.3978C21.332 22.9116 22.9106 21.3401 22.9106 19.3987V12.6076C22.9035 10.6663 21.332 9.09473 19.3978 9.09473ZM15.9986 20.5436C13.4955 20.5436 11.4546 18.5027 11.4546 15.9996C11.4546 13.4965 13.4955 11.4556 15.9986 11.4556C18.5018 11.4556 20.5426 13.4965 20.5426 15.9996C20.5426 18.5027 18.5018 20.5436 15.9986 20.5436ZM20.7702 11.9605C20.3435 11.9605 20.0022 11.6192 20.0022 11.1925C20.0022 10.7658 20.3435 10.4245 20.7702 10.4245C21.1969 10.4245 21.5382 10.7658 21.5382 11.1925C21.5382 11.6192 21.1969 11.9605 20.7702 11.9605Z" fill="white"/>
<path d="M18.7642 16.0346C18.7825 14.5108 17.562 13.2607 16.0382 13.2424C14.5144 13.2241 13.2643 14.4446 13.246 15.9684C13.2277 17.4922 14.4482 18.7424 15.972 18.7606C17.4958 18.7789 18.7459 17.5585 18.7642 16.0346Z" fill="white"/>
<path d="M16 0C7.16089 0 0 7.16089 0 16C0 24.8391 7.16089 32 16 32C24.8391 32 32 24.8391 32 16C32 7.16089 24.8391 0 16 0ZM24.8889 19.3991C24.8889 22.4284 22.4284 24.8889 19.3991 24.8889H12.608C9.57867 24.8889 7.11822 22.4284 7.11822 19.3991V12.608C7.11822 9.57867 9.57867 7.11822 12.608 7.11822H19.3991C22.4284 7.11822 24.8889 9.57867 24.8889 12.608V19.3991Z" fill="white"/>
</g>
<defs>
<clipPath id="clip0_8878_940">
<rect width="32" height="32" fill="white"/>
</clipPath>
</defs>
</svg>
