<svg width="24" height="24" viewBox="0 0 24 24" fill="none" xmlns="http://www.w3.org/2000/svg">
<g clip-path="url(#clip0_992_3331)">
<path d="M23.9655 9.24636C23.8829 8.99178 23.6629 8.80625 23.398 8.76781L15.9579 7.68664L12.6305 0.944777C12.5121 0.704778 12.2676 0.552856 12 0.552856C11.7324 0.552856 11.488 0.704778 11.3695 0.944777L8.04198 7.68664L0.602007 8.76781C0.337211 8.80625 0.117134 8.99178 0.0344468 9.24631C-0.0482872 9.50089 0.0207125 9.78031 0.212384 9.9671L5.59586 15.2149L4.32518 22.625C4.2799 22.8889 4.38837 23.1554 4.60488 23.3127C4.72737 23.4017 4.87244 23.447 5.01822 23.447C5.13016 23.447 5.24247 23.4203 5.34532 23.3662L12 19.8676L18.6544 23.3662C18.8913 23.4907 19.1784 23.47 19.3949 23.3127C19.6114 23.1554 19.7199 22.8888 19.6747 22.6249L18.4036 15.2149L23.7876 9.96706C23.9793 9.78031 24.0483 9.50089 23.9655 9.24636Z" fill="#2196F3"/>
</g>
<defs>
<clipPath id="clip0_992_3331">
<rect width="24" height="24" fill="white"/>
</clipPath>
</defs>
</svg>
